<?xml version="1.0" standalone="no"?>
<!DOCTYPE svg PUBLIC "-//W3C//DTD SVG 20010904//EN"
 "http://www.w3.org/TR/2001/REC-SVG-20010904/DTD/svg10.dtd">
<svg version="1.0" xmlns="http://www.w3.org/2000/svg"
 width="1100.000000pt" height="1100.000000pt" viewBox="0 0 1100.000000 1100.000000"
 preserveAspectRatio="xMidYMid meet">
<metadata>
Created by potrace 1.11, written by Peter Selinger 2001-2013
</metadata>
<g transform="translate(0.000000,1100.000000) scale(0.100000,-0.100000)"
fill="#000000" stroke="none">
<path d="M5178 10403 c7 -3 16 -2 19 1 4 3 -2 6 -13 5 -11 0 -14 -3 -6 -6z"/>
<path d="M5310 10383 c0 -5 -39 -8 -88 -9 -75 0 -221 -8 -342 -19 -64 -5 -173
-25 -184 -33 -6 -5 -51 -21 -101 -36 -760 -233 -1344 -689 -1635 -1275 -140
-281 -204 -549 -204 -858 0 -73 -4 -109 -11 -105 -10 6 -267 197 -295 219 -24
19 -277 206 -301 223 -12 8 -27 20 -33 25 -6 6 -42 33 -79 60 -37 28 -80 60
-95 72 -15 13 -33 23 -40 23 -7 0 -15 7 -18 15 -4 9 -19 15 -36 15 -26 0 -29
-2 -18 -15 8 -9 8 -15 2 -15 -6 0 -13 -8 -15 -17 -3 -13 -5 -12 -6 5 -2 40
-35 24 -39 -18 -4 -56 -10 -75 -32 -100 -19 -22 -19 -24 -4 -41 16 -17 17
-241 17 -2984 0 -2063 -3 -2969 -11 -2977 -7 -7 -6 -20 2 -42 9 -23 11 -243
10 -893 -1 -475 -4 -870 -8 -879 -3 -8 -1 -25 6 -37 7 -12 14 -40 18 -62 4
-33 9 -39 25 -37 13 3 37 -16 78 -60 55 -60 59 -62 72 -44 13 17 15 18 15 3 0
-23 20 -21 51 6 14 12 53 45 85 73 32 28 129 111 214 184 196 169 294 254 300
260 3 3 104 91 225 195 121 104 222 192 225 195 3 3 55 48 115 100 61 52 112
97 115 100 3 4 932 6 2066 6 l2060 -1 150 -120 c82 -65 154 -124 160 -130 6
-5 26 -21 44 -35 42 -31 93 -73 100 -81 4 -5 201 -163 729 -588 91 -73 184
-149 206 -167 22 -19 44 -34 49 -34 4 0 5 -7 2 -15 -3 -9 1 -18 10 -22 16 -6
41 6 194 90 30 17 82 44 115 60 86 42 235 140 235 155 0 6 -3 12 -7 12 -5 0
-8 1778 -8 3950 0 3163 2 3947 13 3933 9 -13 12 -102 12 -362 1 -190 1 -1976
1 -3969 -1 -3608 -1 -3622 19 -3622 20 0 20 14 20 3930 0 3487 2 3930 15 3930
19 0 19 17 0 54 -8 15 -15 46 -15 67 0 39 -14 51 -36 29 -7 -7 -21 -1 -45 20
-19 17 -44 38 -56 46 -12 9 -20 21 -17 29 8 21 -16 29 -44 14 -15 -8 -29 -16
-32 -20 -16 -18 -58 -39 -77 -39 -13 0 -46 -12 -73 -26 -52 -27 -141 -109
-131 -120 3 -4 1 -4 -5 -1 -9 5 -76 -37 -131 -83 -7 -6 -14 -10 -17 -10 -2 0
-40 -22 -83 -49 -43 -27 -145 -91 -228 -142 -82 -51 -151 -97 -153 -101 -2 -4
-8 -8 -13 -8 -6 0 -22 -8 -37 -19 -15 -10 -76 -49 -137 -87 -60 -37 -145 -90
-188 -116 l-79 -49 7 83 c4 46 7 133 7 193 0 107 -2 127 -23 265 -48 316 -205
665 -419 935 -93 116 -299 318 -415 406 -55 42 -104 78 -110 80 -5 2 -41 25
-80 50 -85 56 -272 156 -375 200 -196 84 -547 205 -625 215 -33 4 -62 8 -65 9
-11 3 -138 18 -170 20 -19 2 -81 4 -137 5 -65 1 -101 6 -97 12 4 6 -3 5 -15
-1 -14 -8 -21 -8 -21 -1 0 5 -7 10 -15 10 -8 0 -15 -3 -15 -7z m-3365 -1783
c3 -6 -1 -7 -9 -4 -18 7 -21 14 -7 14 6 0 13 -4 16 -10z m686 -517 c13 -16 12
-17 -3 -4 -10 7 -18 15 -18 17 0 8 8 3 21 -13z m89 -70 c0 -7 -58 36 -66 49
-4 7 9 -1 29 -16 20 -16 37 -30 37 -33z m31 -20 c13 -16 12 -17 -3 -4 -10 7
-18 15 -18 17 0 8 8 3 21 -13z m2624 -6333 c1097 0 1995 -4 1995 -8 0 -4 -904
-8 -2008 -8 l-2009 1 -17 23 -18 24 30 -16 c28 -14 226 -16 2027 -16z m2079
-9 c3 -4 -6 -6 -19 -3 -14 2 -25 6 -25 8 0 8 39 4 44 -5z m254 -213 c644 -517
1169 -934 1186 -943 19 -11 24 -27 9 -32 -4 -2 -78 54 -163 123 -85 69 -170
138 -189 152 -19 15 -39 32 -45 37 -6 6 -137 111 -291 235 -154 123 -288 231
-297 240 -9 8 -113 92 -232 185 -191 151 -229 185 -211 185 3 0 108 -82 233
-182z m-4618 38 c0 -2 -8 -10 -17 -17 -16 -13 -17 -12 -4 4 13 16 21 21 21 13z
m-280 -239 c0 -2 -10 -12 -22 -23 l-23 -19 19 23 c18 21 26 27 26 19z m-90
-81 c0 -2 -8 -10 -17 -17 -16 -13 -17 -12 -4 4 13 16 21 21 21 13z m-50 -50
c0 -2 -7 -7 -16 -10 -8 -3 -12 -2 -9 4 6 10 25 14 25 6z m-80 -59 c0 -2 -10
-12 -22 -23 l-23 -19 19 23 c18 21 26 27 26 19z m-70 -60 c0 -2 -12 -14 -27
-28 l-28 -24 24 28 c23 25 31 32 31 24z m-80 -71 c0 -2 -8 -10 -17 -17 -16
-13 -17 -12 -4 4 13 16 21 21 21 13z m-60 -49 c0 -2 -17 -19 -37 -38 l-38 -34
34 38 c33 34 41 42 41 34z m-90 -81 c0 -2 -8 -10 -17 -17 -16 -13 -17 -12 -4
4 13 16 21 21 21 13z m-60 -49 c0 -2 -15 -16 -32 -33 l-33 -29 29 33 c28 30
36 37 36 29z m-70 -60 c0 -2 -15 -16 -32 -33 l-33 -29 29 33 c28 30 36 37 36
29z m-70 -60 c0 -2 -19 -21 -42 -42 l-43 -40 40 43 c36 39 45 47 45 39z"/>
<path d="M1777 8974 c-4 -4 -7 -16 -7 -26 0 -16 3 -17 21 -8 11 6 19 16 16 23
-4 14 -21 20 -30 11z"/>
<path d="M1770 8753 c0 -11 5 -11 20 -3 11 6 20 12 20 13 0 2 -9 3 -20 3 -11
0 -20 -6 -20 -13z"/>
</g>
</svg>
