<?xml version="1.0" standalone="no"?>
<!DOCTYPE svg PUBLIC "-//W3C//DTD SVG 20010904//EN"
 "http://www.w3.org/TR/2001/REC-SVG-20010904/DTD/svg10.dtd">
<svg version="1.0" xmlns="http://www.w3.org/2000/svg"
 width="512.000000pt" height="512.000000pt" viewBox="0 0 512.000000 512.000000"
 preserveAspectRatio="xMidYMid meet">
<metadata>
Created by potrace 1.11, written by Peter Selinger 2001-2013
</metadata>
<g transform="translate(0.000000,512.000000) scale(0.100000,-0.100000)"
fill="#000000" stroke="none">
<path d="M85 5037 c-26 -14 -48 -37 -62 -67 l-23 -44 0 -2367 0 -2366 23 -44
c29 -55 85 -89 146 -89 43 0 133 40 296 132 33 18 76 41 95 49 31 14 247 16
2010 14 l1975 -1 170 -93 c203 -111 244 -121 320 -76 33 19 52 39 66 68 18 41
19 111 19 2405 0 2531 3 2399 -47 2450 -61 64 -134 67 -246 11 -45 -23 -86
-44 -92 -49 -5 -4 -64 -36 -130 -70 -66 -35 -136 -72 -155 -83 -41 -23 -117
-64 -255 -137 -55 -29 -104 -56 -110 -60 -5 -4 -48 -27 -95 -52 l-85 -45
-1350 1 -1350 2 -80 45 c-44 25 -118 66 -165 91 -146 78 -414 222 -545 293
-212 116 -252 126 -330 82z m370 -298 c44 -24 114 -61 155 -84 42 -22 171 -91
288 -154 l212 -114 0 -79 0 -79 -27 15 c-25 12 -357 171 -565 270 -42 20 -86
36 -98 36 -12 0 -35 -13 -51 -29 l-29 -30 2 -1934 c3 -1868 4 -1936 22 -1955
34 -39 66 -37 167 11 203 96 506 240 542 258 l37 19 0 -78 0 -78 -257 -139
c-142 -77 -283 -152 -313 -168 -30 -16 -107 -58 -170 -92 -63 -34 -134 -72
-157 -84 l-43 -21 0 2331 0 2331 103 -55 c56 -30 138 -74 182 -98z m4493
-3344 l-3 -1165 -200 108 c-110 60 -231 125 -270 146 -38 21 -115 62 -171 91
-55 30 -123 66 -150 82 -27 15 -71 39 -97 53 l-47 25 0 77 0 78 38 -19 c21
-11 67 -33 103 -49 35 -17 150 -71 254 -122 105 -51 210 -101 234 -111 54 -24
93 -18 121 18 20 26 20 37 20 1953 0 1916 0 1927 -20 1953 -11 14 -33 28 -48
32 -31 6 -54 -3 -317 -130 -88 -42 -194 -93 -235 -112 -41 -19 -92 -44 -112
-54 l-38 -19 0 77 0 78 92 50 c51 28 132 71 181 98 49 26 182 98 296 159 113
62 242 131 286 154 l80 43 3 -1165 c1 -640 1 -1688 0 -2329z m-3003 2956 l360
-1 2 -74 c2 -90 29 -152 85 -201 100 -85 236 -85 336 0 54 47 82 111 86 196 1
38 5 71 8 74 4 4 895 9 1006 5 9 0 12 -365 12 -1790 l0 -1790 -27 0 c-220 -3
-987 1 -991 5 -3 3 -7 36 -8 74 -5 123 -70 213 -179 247 -171 54 -335 -77
-330 -264 1 -29 -2 -55 -5 -57 -6 -4 -574 -7 -927 -5 l-93 0 0 1790 0 1789
108 3 c59 2 127 2 152 1 25 -1 207 -2 405 -2z m700 -49 c-2 -66 -12 -90 -46
-108 -68 -34 -123 10 -124 100 l-1 51 71 5 c101 7 102 7 100 -48z m-1995 -41
c47 -21 169 -80 273 -130 l187 -90 0 -275 0 -275 -62 19 c-35 10 -158 45 -274
79 -117 33 -224 65 -238 71 l-27 10 2 330 1 330 26 -14 c15 -9 65 -33 112 -55z
m3959 -267 c-1 -322 -2 -326 -23 -335 -18 -7 -216 -65 -476 -139 -36 -10 -73
-22 -82 -25 -17 -7 -18 10 -18 274 0 177 4 281 10 281 9 0 164 74 460 217 58
29 111 52 118 52 10 1 12 -66 11 -325z m-3784 -597 l280 -83 3 -332 c1 -182
-1 -332 -5 -333 -5 -1 -139 -2 -300 -3 l-292 -1 -1 418 c0 392 1 417 17 416
10 0 144 -37 298 -82z m3782 -334 l-2 -418 -295 0 -295 1 0 334 0 333 75 23
c41 12 156 45 255 74 99 28 189 55 200 60 11 5 30 9 42 9 l22 1 -2 -417z
m-3509 -592 c10 -1 12 -71 10 -333 l-3 -332 -40 -12 c-414 -122 -504 -148
-528 -152 l-27 -4 0 415 c1 228 3 417 5 418 3 3 546 3 583 0z m3509 -417 l2
-421 -117 34 c-64 19 -198 58 -297 87 l-180 52 -3 324 c-1 179 -1 329 2 335 2
6 109 10 297 10 l294 0 2 -421z m-3497 -700 l0 -275 -177 -86 c-327 -157 -404
-193 -413 -193 -5 0 -9 148 -9 329 l-2 328 63 17 c47 12 332 95 536 155 1 1 2
-123 2 -275z m3261 171 l237 -69 1 -332 1 -332 -37 18 c-43 20 -180 86 -388
184 -77 37 -147 70 -155 75 -13 7 -15 51 -18 284 l-2 276 62 -18 c35 -10 169
-49 299 -86z m-1777 -595 c34 -12 50 -45 51 -105 2 -48 1 -50 -29 -55 -17 -3
-56 -3 -87 -2 l-57 4 3 52 c3 62 18 94 48 106 29 12 41 12 71 0z m1471 -418
c83 -45 143 -82 135 -83 -60 -3 -3281 -1 -3285 2 -2 3 33 24 78 47 45 23 115
60 155 81 l73 38 1347 -1 1347 -1 150 -83z"/>
<path d="M2181 3742 c-22 -10 -33 -25 -40 -51 -5 -20 -9 -146 -10 -281 -3
-526 -33 -803 -112 -1043 -91 -280 -217 -434 -446 -549 -101 -51 -123 -72
-123 -119 0 -27 53 -79 80 -79 35 0 159 58 245 115 88 59 192 161 250 244 71
103 156 301 186 430 6 25 13 55 15 66 9 39 36 190 39 220 1 16 6 55 9 85 16
130 27 394 29 687 1 229 1 233 -22 257 -29 31 -62 37 -100 18z"/>
<path d="M2516 3741 c-15 -9 -29 -25 -33 -36 -11 -31 -11 -1486 0 -1519 6 -18
22 -33 43 -42 46 -19 97 1 111 42 6 18 9 322 8 769 0 632 -3 743 -15 763 -25
37 -74 47 -114 23z"/>
<path d="M2875 3750 c-11 -4 -29 -17 -40 -30 -18 -20 -19 -36 -19 -238 1 -205
11 -509 19 -597 2 -22 7 -69 10 -105 29 -310 113 -586 239 -783 105 -164 343
-345 491 -373 29 -5 39 -2 65 24 16 17 30 40 30 51 0 48 -22 70 -124 120 -178
88 -288 197 -376 376 -62 127 -100 244 -126 395 -4 25 -8 47 -9 50 -1 5 -13
97 -20 155 -4 37 -17 202 -20 275 -2 30 -4 181 -5 335 -2 218 -5 286 -16 308
-8 15 -16 27 -17 27 -1 0 -16 4 -32 9 -17 4 -39 5 -50 1z"/>
</g>
</svg>
